LexendDeca-Regular.ufo
<glyph name="dollar" format="2">
  <advance width="609"/>
  <unicode hex="0024"/>
  <note>
dollar
</note>
  <outline>
    <contour>
      <point x="265.0" y="363.0" type="line"/>
      <point x="338.0" y="330.0" type="line"/>
      <point x="338.0" y="-91.0" type="line"/>
      <point x="265.0" y="-91.0" type="line"/>
    </contour>
    <contour>
      <point x="360.0" y="330.0" type="line"/>
      <point x="287.0" y="363.0" type="line"/>
      <point x="287.0" y="782.0" type="line"/>
      <point x="360.0" y="782.0" type="line"/>
    </contour>
    <contour>
      <point x="51.5" y="114.5" type="qcurve"/>
      <point x="107.0" y="175.0" type="line"/>
      <point x="151.5" y="118.0"/>
      <point x="248.5" y="63.5"/>
      <point x="314.0" y="63.5" type="qcurve" smooth="yes"/>
      <point x="382.5" y="63.5"/>
      <point x="475.0" y="130.0"/>
      <point x="475.0" y="181.5" type="qcurve" smooth="yes"/>
      <point x="475.0" y="237.5"/>
      <point x="385.0" y="296.0"/>
      <point x="294.5" y="316.0" type="qcurve" smooth="yes"/>
      <point x="191.5" y="338.5"/>
      <point x="86.0" y="434.0"/>
      <point x="86.0" y="516.5" type="qcurve"/>
      <point x="86.0" y="599.5"/>
      <point x="218.5" y="707.5"/>
      <point x="315.5" y="707.5" type="qcurve"/>
      <point x="396.5" y="707.5"/>
      <point x="511.0" y="646.0"/>
      <point x="545.0" y="593.5" type="qcurve"/>
      <point x="488.5" y="538.0" type="line"/>
      <point x="459.0" y="582.0"/>
      <point x="371.0" y="634.0"/>
      <point x="314.0" y="634.0" type="qcurve"/>
      <point x="249.0" y="634.0"/>
      <point x="165.5" y="569.0"/>
      <point x="165.5" y="517.5" type="qcurve"/>
      <point x="165.5" y="469.5"/>
      <point x="239.0" y="415.0"/>
      <point x="329.0" y="393.5" type="qcurve" smooth="yes"/>
      <point x="434.5" y="368.5"/>
      <point x="554.5" y="275.0"/>
      <point x="554.5" y="197.0" type="qcurve" smooth="yes"/>
      <point x="554.5" y="105.0"/>
      <point x="418.5" y="-10.0"/>
      <point x="307.5" y="-10.0" type="qcurve" smooth="yes"/>
      <point x="226.9873949579832" y="-10.0"/>
      <point x="94.8381875485158" y="56.592440646660435"/>
    </contour>
  </outline>
</glyph>
<glyph name="plus" format="2">
  <advance width="591"/>
  <unicode hex="002B"/>
  <note>
plus
</note>
  <outline>
    <contour>
      <point x="541.0" y="248.5" type="line"/>
      <point x="50.0" y="248.5" type="line"/>
      <point x="50.0" y="317.5" type="line"/>
      <point x="541.0" y="317.5" type="line"/>
    </contour>
    <contour>
      <point x="333.5" y="42.0" type="line"/>
      <point x="256.0" y="42.0" type="line"/>
      <point x="256.0" y="525.0" type="line"/>
      <point x="333.5" y="525.0" type="line"/>
    </contour>
  </outline>
</glyph>
<glyph name="comma" format="2">
  <advance width="250"/>
  <unicode hex="002C"/>
  <note>
comma
</note>
  <outline>
    <contour>
      <point x="123.0" y="96.0" type="qcurve"/>
      <point x="157.5" y="96.0"/>
      <point x="199.5" y="43.0"/>
      <point x="199.5" y="-1.0" type="qcurve" smooth="yes"/>
      <point x="199.5" y="-54.0"/>
      <point x="138.0" y="-138.5"/>
      <point x="83.0" y="-165.0" type="qcurve"/>
      <point x="55.0" y="-129.0" type="line"/>
      <point x="86.5" y="-110.5"/>
      <point x="123.5" y="-65.5"/>
      <point x="123.5" y="-45.5" type="qcurve" smooth="yes"/>
      <point x="123.5" y="-34.5"/>
      <point x="115.5" y="-15.0"/>
      <point x="99.0" y="0.5" type="qcurve" smooth="yes"/>
      <point x="84.40929368315346" y="13.5705493575473"/>
      <point x="72.0" y="37.21052631578947"/>
      <point x="72.0" y="50.5" type="qcurve"/>
      <point x="72.0" y="71.05"/>
      <point x="100.0" y="96.0"/>
    </contour>
  </outline>
</glyph>
<glyph name="slash" format="2">
  <advance width="560"/>
  <unicode hex="002F"/>
  <note>
slash
</note>
  <outline>
    <contour>
      <point x="114.0" y="-119.5" type="line"/>
      <point x="36.5" y="-119.5" type="line"/>
      <point x="442.5" y="700.0" type="line"/>
      <point x="518.5" y="700.0" type="line"/>
    </contour>
  </outline>
</glyph>
<glyph name="one" format="2">
  <advance width="460"/>
  <unicode hex="0031"/>
  <outline>
    <contour>
      <point x="287.0" y="34.5" type="line"/>
      <point x="207.5" y="34.5" type="line"/>
      <point x="207.5" y="637.0" type="line"/>
      <point x="237.0" y="615.5" type="line"/>
      <point x="106.0" y="537.0" type="line"/>
      <point x="83.5" y="608.5" type="line"/>
      <point x="257.0" y="710.0" type="line"/>
      <point x="287.0" y="710.0" type="line"/>
    </contour>
    <contour>
      <point x="393.0" y="77.0" type="line"/>
      <point x="393.0" y="0.0" type="line"/>
      <point x="104.5" y="0.0" type="line"/>
      <point x="104.5" y="77.0" type="line"/>
    </contour>
  </outline>
</glyph>
<glyph name="three" format="2">
  <advance width="529"/>
  <unicode hex="0033"/>
  <outline>
    <contour>
      <point x="20.0" y="138.0" type="qcurve"/>
      <point x="84.5" y="178.5" type="line"/>
      <point x="125.5" y="114.5"/>
      <point x="212.0" y="62.5"/>
      <point x="261.5" y="62.5" type="qcurve" smooth="yes"/>
      <point x="325.0" y="62.5"/>
      <point x="415.0" y="152.0"/>
      <point x="415.0" y="218.0" type="qcurve"/>
      <point x="415.0" y="285.0"/>
      <point x="332.5" y="368.5"/>
      <point x="267.5" y="368.5" type="qcurve" smooth="yes"/>
      <point x="243.0" y="368.5"/>
      <point x="184.0" y="350.5"/>
      <point x="146.5" y="325.0" type="qcurve"/>
      <point x="122.5" y="387.5" type="line"/>
      <point x="369.0" y="655.0" type="line"/>
      <point x="386.0" y="626.0" type="line"/>
      <point x="69.0" y="626.0" type="line"/>
      <point x="69.0" y="700.0" type="line"/>
      <point x="447.0" y="700.0" type="line"/>
      <point x="467.0" y="660.0" type="line"/>
      <point x="228.0" y="404.0" type="line"/>
      <point x="208.0" y="424.5" type="line"/>
      <point x="220.4363325037031" y="432.5259517883594"/>
      <point x="256.4090909090909" y="443.0"/>
      <point x="274.5" y="443.0" type="qcurve"/>
      <point x="366.5" y="443.0"/>
      <point x="493.5" y="314.5"/>
      <point x="493.5" y="221.5" type="qcurve"/>
      <point x="493.5" y="123.0"/>
      <point x="356.0" y="-10.0"/>
      <point x="255.5" y="-10.0" type="qcurve"/>
      <point x="181.5" y="-10.0"/>
      <point x="68.5" y="57.5"/>
    </contour>
  </outline>
</glyph>
<glyph name="five" format="2">
  <advance width="568"/>
  <unicode hex="0035"/>
  <outline>
    <contour>
      <point x="508.0" y="238.5" type="qcurve" smooth="yes"/>
      <point x="508.0" y="134.0"/>
      <point x="364.0" y="-7.0"/>
      <point x="257.0" y="-7.0" type="qcurve"/>
      <point x="188.0" y="-7.0"/>
      <point x="76.0" y="56.0"/>
      <point x="39.0" y="115.0" type="qcurve"/>
      <point x="86.0" y="166.5" type="line"/>
      <point x="129.0" y="110.5"/>
      <point x="213.5" y="67.5"/>
      <point x="257.5" y="67.5" type="qcurve"/>
      <point x="330.5" y="67.5"/>
      <point x="430.0" y="165.0"/>
      <point x="430.0" y="234.0" type="qcurve"/>
      <point x="430.0" y="301.5"/>
      <point x="339.5" y="394.0"/>
      <point x="269.5" y="394.0" type="qcurve"/>
      <point x="233.5" y="394.0"/>
      <point x="157.5" y="369.5"/>
      <point x="112.5" y="343.5" type="qcurve"/>
      <point x="68.0" y="403.0" type="line"/>
      <point x="109.0" y="700.0" type="line"/>
      <point x="487.0" y="700.0" type="line"/>
      <point x="487.0" y="626.5" type="line"/>
      <point x="150.5" y="626.5" type="line"/>
      <point x="175.5" y="644.0" type="line"/>
      <point x="139.0" y="399.5" type="line"/>
      <point x="116.0" y="416.5" type="line"/>
      <point x="139.0" y="436.0"/>
      <point x="235.0" y="468.0"/>
      <point x="281.5" y="468.0" type="qcurve"/>
      <point x="378.0" y="468.0"/>
      <point x="508.0" y="339.0"/>
    </contour>
  </outline>
</glyph>
<glyph name="seven" format="2">
  <advance width="517"/>
  <unicode hex="0037"/>
  <outline>
    <contour>
      <point x="193.0" y="0.0" type="line"/>
      <point x="107.0" y="0.0" type="line"/>
      <point x="401.5" y="653.0" type="line"/>
      <point x="414.0" y="626.5" type="line"/>
      <point x="40.0" y="626.5" type="line"/>
      <point x="40.0" y="700.0" type="line"/>
      <point x="462.5" y="700.0" type="line"/>
      <point x="475.5" y="639.0" type="line"/>
    </contour>
  </outline>
</glyph>
<glyph name="H" format="2">
  <advance width="753"/>
  <unicode hex="0048"/>
  <note>
H
</note>
  <outline>
    <contour>
      <point x="103.0" y="700.0" type="line"/>
      <point x="182.0" y="700.0" type="line"/>
      <point x="182.0" y="0.0" type="line"/>
      <point x="103.0" y="0.0" type="line"/>
    </contour>
    <contour>
      <point x="570.5" y="700.0" type="line"/>
      <point x="649.5" y="700.0" type="line"/>
      <point x="649.5" y="0.0" type="line"/>
      <point x="570.5" y="0.0" type="line"/>
    </contour>
    <contour>
      <point x="141.0" y="310.5" type="line"/>
      <point x="141.0" y="387.5" type="line"/>
      <point x="603.5" y="387.5" type="line"/>
      <point x="603.5" y="310.5" type="line"/>
    </contour>
  </outline>
</glyph>
<glyph name="J" format="2">
  <advance width="633"/>
  <unicode hex="004A"/>
  <note>
J
</note>
  <outline>
    <contour>
      <point x="262.5" y="-10.0" type="qcurve"/>
      <point x="196.0" y="-10.0"/>
      <point x="89.5" y="58.0"/>
      <point x="59.0" y="117.0" type="qcurve"/>
      <point x="111.0" y="171.5" type="line"/>
      <point x="148.5" y="111.5"/>
      <point x="221.0" y="67.5"/>
      <point x="263.0" y="67.5" type="qcurve" smooth="yes"/>
      <point x="324.5" y="67.5"/>
      <point x="401.5" y="153.0"/>
      <point x="401.5" y="219.5" type="qcurve"/>
      <point x="401.5" y="700.0" type="line"/>
      <point x="482.5" y="700.0" type="line"/>
      <point x="482.5" y="213.0" type="line"/>
      <point x="482.5" y="117.0"/>
      <point x="359.5" y="-10.0"/>
    </contour>
    <contour>
      <point x="585.5" y="700.0" type="line"/>
      <point x="585.5" y="625.0" type="line"/>
      <point x="274.0" y="625.0" type="line"/>
      <point x="274.0" y="700.0" type="line"/>
    </contour>
  </outline>
</glyph>
<glyph name="O" format="2">
  <advance width="785"/>
  <unicode hex="004F"/>
  <note>
O
</note>
  <outline>
    <contour>
      <point x="392.0" y="707.5" type="qcurve"/>
      <point x="541.0" y="707.5"/>
      <point x="735.5" y="503.5"/>
      <point x="735.5" y="348.5" type="qcurve"/>
      <point x="735.5" y="193.5"/>
      <point x="541.0" y="-10.0"/>
      <point x="392.0" y="-10.0" type="qcurve"/>
      <point x="243.0" y="-10.0"/>
      <point x="49.0" y="193.0"/>
      <point x="49.0" y="348.5" type="qcurve"/>
      <point x="49.0" y="504.0"/>
      <point x="243.0" y="707.5"/>
    </contour>
    <contour>
      <point x="392.0" y="67.5" type="qcurve" smooth="yes"/>
      <point x="506.0" y="67.5"/>
      <point x="654.0" y="226.5"/>
      <point x="654.0" y="348.5" type="qcurve"/>
      <point x="654.0" y="470.5"/>
      <point x="506.0" y="630.0"/>
      <point x="392.0" y="630.0" type="qcurve" smooth="yes"/>
      <point x="277.5" y="630.0"/>
      <point x="130.5" y="471.0"/>
      <point x="130.5" y="348.5" type="qcurve"/>
      <point x="130.5" y="226.0"/>
      <point x="277.5" y="67.5"/>
    </contour>
  </outline>
</glyph>
<glyph name="P" format="2">
  <advance width="623"/>
  <unicode hex="0050"/>
  <note>
P
</note>
  <outline>
    <contour>
      <point x="103.0" y="700.0" type="line"/>
      <point x="380.0" y="700.0" type="line" smooth="yes"/>
      <point x="462.5" y="700.0"/>
      <point x="575.0" y="580.5"/>
      <point x="575.0" y="491.5" type="qcurve" smooth="yes"/>
      <point x="575.0" y="399.5"/>
      <point x="462.5" y="275.5"/>
      <point x="380.0" y="275.5" type="qcurve"/>
      <point x="170.0" y="275.5" type="line"/>
      <point x="182.0" y="293.5" type="line"/>
      <point x="182.0" y="0.0" type="line"/>
      <point x="103.0" y="0.0" type="line"/>
    </contour>
    <contour>
      <point x="169.0" y="352.5" type="line"/>
      <point x="383.5" y="352.5" type="line" smooth="yes"/>
      <point x="430.0" y="352.5"/>
      <point x="493.5" y="433.0"/>
      <point x="493.5" y="492.5" type="qcurve" smooth="yes"/>
      <point x="493.5" y="548.0"/>
      <point x="430.0" y="623.0"/>
      <point x="383.5" y="623.0" type="qcurve"/>
      <point x="169.0" y="623.0" type="line"/>
      <point x="182.0" y="641.0" type="line"/>
      <point x="182.0" y="339.5" type="line"/>
    </contour>
  </outline>
</glyph>
<glyph name="U" format="2">
  <advance width="747"/>
  <unicode hex="0055"/>
  <note>
U
</note>
  <outline>
    <contour>
      <point x="572.5" y="701.0" type="line"/>
      <point x="648.5" y="701.0" type="line"/>
      <point x="648.5" y="269.0" type="line"/>
      <point x="648.5" y="149.5"/>
      <point x="492.0" y="-6.0"/>
      <point x="372.0" y="-6.0" type="qcurve"/>
      <point x="253.0" y="-6.0"/>
      <point x="98.0" y="149.5"/>
      <point x="98.0" y="269.0" type="qcurve"/>
      <point x="98.0" y="701.0" type="line"/>
      <point x="177.0" y="701.0" type="line"/>
      <point x="177.0" y="278.0" type="line"/>
      <point x="177.0" y="189.0"/>
      <point x="289.5" y="71.0"/>
      <point x="372.0" y="71.0" type="qcurve"/>
      <point x="458.0" y="71.0"/>
      <point x="572.5" y="189.0"/>
      <point x="572.5" y="278.0" type="qcurve"/>
    </contour>
  </outline>
</glyph>
<glyph name="X" format="2">
  <advance width="654"/>
  <unicode hex="0058"/>
  <note>
X
</note>
  <outline>
    <contour>
      <point x="527.0" y="700.0" type="line"/>
      <point x="619.0" y="700.0" type="line"/>
      <point x="361.5" y="331.5" type="line"/>
      <point x="314.5" y="387.5" type="line"/>
    </contour>
    <contour>
      <point x="29.5" y="700.0" type="line"/>
      <point x="129.0" y="700.0" type="line"/>
      <point x="346.0" y="390.0" type="line"/>
      <point x="629.0" y="0.0" type="line"/>
      <point x="529.5" y="0.0" type="line"/>
      <point x="307.5" y="314.0" type="line"/>
    </contour>
    <contour>
      <point x="116.5" y="0.0" type="line"/>
      <point x="24.5" y="0.0" type="line"/>
      <point x="289.0" y="377.5" type="line"/>
      <point x="338.5" y="320.0" type="line"/>
    </contour>
  </outline>
</glyph>
<glyph name="grave" format="2">
  <advance width="245"/>
  <unicode hex="0060"/>
  <outline>
    <contour>
      <point x="214.5" y="622.0" type="line"/>
      <point x="187.0" y="581.0" type="line"/>
      <point x="23.0" y="678.5" type="line"/>
      <point x="72.0" y="742.0" type="line"/>
    </contour>
  </outline>
</glyph>
<glyph name="n" format="2">
  <advance width="577"/>
  <unicode hex="006E"/>
  <note>
n
</note>
  <outline>
    <contour>
      <point x="331.0" y="533.5" type="qcurve"/>
      <point x="417.5" y="533.5"/>
      <point x="506.5" y="427.5"/>
      <point x="506.5" y="317.5" type="qcurve"/>
      <point x="506.5" y="0.0" type="line"/>
      <point x="430.0" y="0.0" type="line"/>
      <point x="430.0" y="313.0" type="line"/>
      <point x="430.0" y="390.5"/>
      <point x="368.0" y="464.0"/>
      <point x="306.5" y="462.5" type="qcurve"/>
      <point x="238.5" y="462.5"/>
      <point x="149.0" y="376.5"/>
      <point x="149.0" y="318.0" type="qcurve"/>
      <point x="149.0" y="0.0" type="line"/>
      <point x="123.0" y="0.0"/>
      <point x="98.5" y="0.0"/>
      <point x="72.5" y="0.0" type="qcurve"/>
      <point x="72.5" y="522.5" type="line"/>
      <point x="148.0" y="522.5" type="line"/>
      <point x="150.5" y="413.5" type="line"/>
      <point x="138.5" y="407.5" type="line"/>
      <point x="154.0" y="458.0"/>
      <point x="266.0" y="533.5"/>
    </contour>
  </outline>
</glyph>
<glyph name="p" format="2">
  <advance width="622"/>
  <unicode hex="0070"/>
  <note>
p
</note>
  <outline>
    <contour>
      <point x="339.0" y="532.5" type="qcurve"/>
      <point x="444.0" y="532.5"/>
      <point x="586.0" y="379.5"/>
      <point x="586.0" y="261.5" type="qcurve"/>
      <point x="586.0" y="144.5"/>
      <point x="446.0" y="-9.5"/>
      <point x="340.5" y="-9.5" type="qcurve"/>
      <point x="266.5" y="-9.5"/>
      <point x="146.5" y="76.0"/>
      <point x="131.5" y="132.5" type="qcurve"/>
      <point x="149.5" y="133.0" type="line"/>
      <point x="149.5" y="-220.0" type="line"/>
      <point x="72.5" y="-220.0" type="line"/>
      <point x="72.5" y="523.0" type="line"/>
      <point x="148.5" y="523.0" type="line"/>
      <point x="151.0" y="395.0" type="line"/>
      <point x="136.5" y="393.5" type="line"/>
      <point x="150.5" y="449.5"/>
      <point x="267.5" y="532.5"/>
    </contour>
    <contour>
      <point x="510.0" y="261.5" type="qcurve"/>
      <point x="510.0" y="347.5"/>
      <point x="407.5" y="460.0"/>
      <point x="328.0" y="460.0" type="qcurve"/>
      <point x="248.5" y="460.0"/>
      <point x="145.0" y="348.5"/>
      <point x="145.0" y="262.0" type="qcurve"/>
      <point x="145.0" y="175.5"/>
      <point x="249.0" y="63.0"/>
      <point x="328.0" y="63.0" type="qcurve"/>
      <point x="407.5" y="63.0"/>
      <point x="510.0" y="176.0"/>
    </contour>
  </outline>
</glyph>
<glyph name="u" format="2">
  <advance width="583"/>
  <unicode hex="0075"/>
  <note>
u
</note>
  <outline>
    <contour>
      <point x="279.5" y="59.0" type="qcurve" smooth="yes"/>
      <point x="345.0" y="59.0"/>
      <point x="433.5" y="144.5"/>
      <point x="433.5" y="205.5" type="qcurve"/>
      <point x="433.5" y="522.5" type="line"/>
      <point x="510.0" y="522.5" type="line"/>
      <point x="510.0" y="0.0" type="line"/>
      <point x="434.5" y="0.0" type="line"/>
      <point x="432.0" y="110.0" type="line"/>
      <point x="444.0" y="116.0" type="line"/>
      <point x="427.0" y="63.5"/>
      <point x="320.0" y="-10.0"/>
      <point x="258.0" y="-10.0" type="qcurve" smooth="yes"/>
      <point x="168.0" y="-10.0"/>
      <point x="72.0" y="99.0"/>
      <point x="72.0" y="203.0" type="qcurve"/>
      <point x="72.0" y="522.5" type="line"/>
      <point x="148.5" y="522.5" type="line"/>
      <point x="148.5" y="218.0" type="line"/>
      <point x="148.5" y="140.0"/>
      <point x="215.0" y="59.0"/>
    </contour>
  </outline>
</glyph>
<glyph name="w" format="2">
  <advance width="772"/>
  <unicode hex="0077"/>
  <note>
w
</note>
  <outline>
    <contour>
      <point x="677.0" y="522.5" type="line"/>
      <point x="756.5" y="522.5" type="line"/>
      <point x="576.0" y="0.0" type="line"/>
      <point x="531.0" y="0.0" type="line"/>
      <point x="369.5" y="370.5" type="line"/>
      <point x="399.0" y="369.0" type="line"/>
      <point x="242.5" y="0.0" type="line"/>
      <point x="196.5" y="0.0" type="line"/>
      <point x="15.0" y="522.5" type="line"/>
      <point x="96.0" y="523.0" type="line"/>
      <point x="236.5" y="99.5" type="line"/>
      <point x="211.5" y="101.5" type="line"/>
      <point x="364.0" y="442.0" type="line"/>
      <point x="410.0" y="442.0" type="line"/>
      <point x="563.0" y="101.0" type="line"/>
      <point x="533.5" y="99.0" type="line"/>
    </contour>
  </outline>
</glyph>
<glyph name="asciitilde" format="2">
  <advance width="510"/>
  <unicode hex="007E"/>
  <note>
asciitilde
</note>
  <outline>
    <contour>
      <point x="358.5" y="238.0" type="qcurve"/>
      <point x="343.5" y="238.0"/>
      <point x="293.5" y="251.0"/>
      <point x="239.0" y="269.0" type="qcurve" smooth="yes"/>
      <point x="197.0" y="283.5"/>
      <point x="162.5" y="292.5"/>
      <point x="153.0" y="292.5" type="qcurve" smooth="yes"/>
      <point x="132.0" y="292.5"/>
      <point x="111.0" y="263.5"/>
      <point x="111.0" y="238.0" type="qcurve"/>
      <point x="52.0" y="238.0" type="line"/>
      <point x="52.0" y="295.0"/>
      <point x="106.5" y="357.5"/>
      <point x="158.5" y="357.5" type="qcurve" smooth="yes"/>
      <point x="174.0" y="357.5"/>
      <point x="223.0" y="344.5"/>
      <point x="277.0" y="326.0" type="qcurve" smooth="yes"/>
      <point x="318.5" y="312.0"/>
      <point x="352.0" y="303.0"/>
      <point x="361.0" y="303.0" type="qcurve"/>
      <point x="381.5" y="303.0"/>
      <point x="403.0" y="329.5"/>
      <point x="402.0" y="350.5" type="qcurve"/>
      <point x="461.0" y="349.0" type="line"/>
      <point x="461.0" y="295.0"/>
      <point x="409.0" y="238.0"/>
    </contour>
  </outline>
</glyph>
<glyph name="cent" format="2">
  <advance width="540"/>
  <unicode hex="00A2"/>
  <note>
cent
</note>
  <outline>
    <contour>
      <point x="331.5" y="97.0" type="line"/>
      <point x="331.5" y="0.0" type="line"/>
      <point x="258.0" y="0.0" type="line"/>
      <point x="258.0" y="98.0" type="line"/>
      <point x="262.0" y="133.5" type="line"/>
      <point x="262.0" y="570.0" type="line"/>
      <point x="258.0" y="606.0" type="line"/>
      <point x="258.0" y="700.0" type="line"/>
      <point x="331.5" y="700.0" type="line"/>
      <point x="331.5" y="605.0" type="line"/>
      <point x="327.5" y="574.5" type="line"/>
      <point x="327.5" y="131.0" type="line"/>
    </contour>
    <contour>
      <point x="306.5" y="550.0" type="qcurve" smooth="yes"/>
      <point x="226.5" y="550.0"/>
      <point x="120.5" y="436.5"/>
      <point x="120.5" y="350.0" type="qcurve" smooth="yes"/>
      <point x="120.5" y="264.0"/>
      <point x="228.0" y="149.5"/>
      <point x="303.5" y="149.5" type="qcurve"/>
      <point x="350.5" y="149.5"/>
      <point x="432.5" y="190.0"/>
      <point x="467.0" y="230.5" type="qcurve"/>
      <point x="512.0" y="177.0" type="line"/>
      <point x="478.0" y="132.0"/>
      <point x="365.5" y="78.0"/>
      <point x="302.0" y="78.0" type="qcurve"/>
      <point x="191.0" y="78.0"/>
      <point x="45.0" y="233.0"/>
      <point x="45.0" y="350.0" type="qcurve" smooth="yes"/>
      <point x="45.0" y="467.0"/>
      <point x="191.5" y="621.5"/>
      <point x="303.5" y="621.5" type="qcurve"/>
      <point x="370.5" y="621.5"/>
      <point x="480.5" y="568.0"/>
      <point x="513.0" y="521.0" type="qcurve"/>
      <point x="468.5" y="466.5" type="line"/>
      <point x="440.0" y="504.0"/>
      <point x="351.5" y="550.0"/>
    </contour>
  </outline>
</glyph>
<glyph name="section" format="2">
  <advance width="546"/>
  <unicode hex="00A7"/>
  <note>
section
</note>
  <outline>
    <contour>
      <point x="310.5" y="438.5" type="qcurve" smooth="yes"/>
      <point x="405.04784673676284" y="416.98891970306545"/>
      <point x="492.5" y="338.5"/>
      <point x="491.0" y="277.5" type="qcurve" smooth="yes"/>
      <point x="489.0" y="211.41304347826087"/>
      <point x="398.7255760057551" y="132.48567771392032"/>
      <point x="317.0" y="131.5" type="qcurve"/>
      <point x="354.5" y="175.0" type="line"/>
      <point x="415.5" y="147.0"/>
      <point x="463.0" y="80.97854978498674"/>
      <point x="463.0" y="38.0" type="qcurve" smooth="yes"/>
      <point x="463.0" y="-34.5"/>
      <point x="354.0" y="-126.0"/>
      <point x="266.0" y="-126.0" type="qcurve" smooth="yes"/>
      <point x="204.17821782178217" y="-126.0"/>
      <point x="92.0" y="-76.5"/>
      <point x="59.0" y="-38.5" type="qcurve"/>
      <point x="99.5" y="20.5" type="line"/>
      <point x="131.0" y="-15.0"/>
      <point x="219.5" y="-56.0"/>
      <point x="267.0" y="-56.0" type="qcurve" smooth="yes"/>
      <point x="322.0" y="-56.0"/>
      <point x="388.0" y="-12.5"/>
      <point x="388.0" y="27.0" type="qcurve" smooth="yes"/>
      <point x="388.0" y="60.0"/>
      <point x="318.0" y="107.5"/>
      <point x="232.0" y="129.5" type="qcurve" smooth="yes"/>
      <point x="144.5" y="152.0"/>
      <point x="60.5" y="226.0"/>
      <point x="60.5" y="288.5" type="qcurve" smooth="yes"/>
      <point x="60.5" y="344.57089552238807"/>
      <point x="132.28909719456192" y="425.40613014742223"/>
      <point x="197.5" y="433.5" type="qcurve"/>
      <point x="201.5" y="396.0" type="line"/>
      <point x="147.5" y="415.5"/>
      <point x="99.5" y="481.7352941176471"/>
      <point x="99.5" y="527.0" type="qcurve" smooth="yes"/>
      <point x="99.5" y="600.5"/>
      <point x="205.5" y="692.5"/>
      <point x="283.5" y="692.5" type="qcurve" smooth="yes"/>
      <point x="337.0" y="692.5"/>
      <point x="430.0" y="652.5"/>
      <point x="464.5" y="615.5" type="qcurve"/>
      <point x="420.0" y="563.5" type="line"/>
      <point x="392.0" y="591.0"/>
      <point x="320.0" y="622.5"/>
      <point x="284.5" y="622.5" type="qcurve" smooth="yes"/>
      <point x="236.5" y="622.5"/>
      <point x="175.0" y="574.0"/>
      <point x="175.0" y="536.0" type="qcurve" smooth="yes"/>
      <point x="175.0" y="501.5"/>
      <point x="240.0" y="454.5"/>
    </contour>
    <contour>
      <point x="139.5" y="296.5" type="qcurve" smooth="yes"/>
      <point x="139.5" y="268.867816091954"/>
      <point x="171.2872132852424" y="229.236832222145"/>
      <point x="208.0" y="216.5" type="qcurve"/>
      <point x="320.5" y="182.5" type="line"/>
      <point x="323.0" y="182.0"/>
      <point x="330.0" y="181.5"/>
      <point x="332.0" y="181.5" type="qcurve" smooth="yes"/>
      <point x="366.5" y="182.0"/>
      <point x="415.0" y="230.4230769230769"/>
      <point x="415.0" y="267.5" type="qcurve" smooth="yes"/>
      <point x="415.0" y="296.2307692307692"/>
      <point x="384.6955663201132" y="337.5974327922751"/>
      <point x="345.0" y="349.5" type="qcurve"/>
      <point x="238.5" y="378.0" type="line"/>
      <point x="234.0" y="379.0"/>
      <point x="226.5" y="380.0"/>
      <point x="221.5" y="380.0" type="qcurve" smooth="yes"/>
      <point x="190.1413043478261" y="380.0"/>
      <point x="139.5" y="332.21212121212125"/>
    </contour>
  </outline>
</glyph>
<glyph name="registered" format="2">
  <advance width="513"/>
  <unicode hex="00AE"/>
  <note>
registered
</note>
  <outline>
    <contour>
      <point x="491.0" y="484.0" type="qcurve" smooth="yes"/>
      <point x="491.0" y="389.0"/>
      <point x="355.5" y="256.5"/>
      <point x="259.5" y="256.5" type="qcurve" smooth="yes"/>
      <point x="162.5" y="256.5"/>
      <point x="27.0" y="389.0"/>
      <point x="27.0" y="484.0" type="qcurve" smooth="yes"/>
      <point x="27.0" y="579.0"/>
      <point x="163.5" y="711.5"/>
      <point x="259.5" y="711.5" type="qcurve" smooth="yes"/>
      <point x="354.5262008733624" y="711.5"/>
      <point x="491.0" y="578.0"/>
    </contour>
    <contour>
      <point x="357.0" y="534.0" type="qcurve" smooth="yes"/>
      <point x="357.0" y="501.0"/>
      <point x="311.5" y="458.5"/>
      <point x="278.0" y="458.5" type="qcurve"/>
      <point x="202.0" y="458.5" type="line"/>
      <point x="223.5" y="470.0" type="line"/>
      <point x="223.5" y="367.0" type="line"/>
      <point x="175.5" y="367.0" type="line"/>
      <point x="175.5" y="608.5" type="line"/>
      <point x="278.0" y="608.5" type="line" smooth="yes"/>
      <point x="313.5" y="608.5"/>
      <point x="357.0" y="567.0"/>
    </contour>
    <contour>
      <point x="204.0" y="497.0" type="line"/>
      <point x="263.0" y="497.0" type="line" smooth="yes"/>
      <point x="284.0" y="497.0"/>
      <point x="310.5" y="516.0"/>
      <point x="310.5" y="531.0" type="qcurve" smooth="yes"/>
      <point x="310.5" y="547.5"/>
      <point x="287.5" y="565.5"/>
      <point x="265.0" y="565.5" type="qcurve"/>
      <point x="201.0" y="565.5" type="line"/>
      <point x="223.5" y="576.5" type="line"/>
      <point x="223.5" y="487.0" type="line"/>
    </contour>
    <contour>
      <point x="78.0" y="484.0" type="qcurve" smooth="yes"/>
      <point x="78.0" y="410.0"/>
      <point x="184.0" y="308.0"/>
      <point x="259.5" y="308.0" type="qcurve" smooth="yes"/>
      <point x="334.0" y="308.0"/>
      <point x="439.5" y="410.0"/>
      <point x="439.5" y="484.0" type="qcurve" smooth="yes"/>
      <point x="439.5" y="558.0"/>
      <point x="333.96984924623115" y="660.5"/>
      <point x="259.5" y="660.5" type="qcurve" smooth="yes"/>
      <point x="184.0" y="660.5"/>
      <point x="78.0" y="558.0"/>
    </contour>
    <contour>
      <point x="305.5" y="367.0" type="line"/>
      <point x="261.5" y="467.0" type="line"/>
      <point x="305.5" y="481.0" type="line"/>
      <point x="356.5" y="367.0" type="line"/>
    </contour>
  </outline>
</glyph>
<glyph name="plusminus" format="2">
  <advance width="582"/>
  <unicode hex="00B1"/>
  <note>
plusminus
</note>
  <outline>
    <contour>
      <point x="531.0" y="305.5" type="line"/>
      <point x="51.0" y="305.5" type="line"/>
      <point x="51.0" y="374.5" type="line"/>
      <point x="531.0" y="374.5" type="line"/>
    </contour>
    <contour>
      <point x="330.0" y="155.0" type="line"/>
      <point x="253.0" y="155.0" type="line"/>
      <point x="253.0" y="529.5" type="line"/>
      <point x="330.0" y="529.5" type="line"/>
    </contour>
    <contour>
      <point x="531.0" y="20.5" type="line"/>
      <point x="51.0" y="20.5" type="line"/>
      <point x="51.0" y="90.5" type="line"/>
      <point x="531.0" y="90.5" type="line"/>
    </contour>
  </outline>
</glyph>
<glyph name="ordmasculine" format="2">
  <advance width="354"/>
  <unicode hex="00BA"/>
  <note>
ordmasculine
</note>
  <outline>
    <contour>
      <point x="176.0" y="710.0" type="qcurve"/>
      <point x="240.87974683544303" y="710.0"/>
      <point x="329.0" y="617.0"/>
      <point x="329.0" y="549.0" type="qcurve"/>
      <point x="329.0" y="482.0"/>
      <point x="241.84810126582278" y="392.0"/>
      <point x="176.0" y="392.0" type="qcurve"/>
      <point x="111.1474358974359" y="392.0"/>
      <point x="25.0" y="481.0"/>
      <point x="25.0" y="549.0" type="qcurve"/>
      <point x="25.0" y="618.0"/>
      <point x="111.1474358974359" y="710.0"/>
    </contour>
    <contour>
      <point x="124.5" y="506.0" type="qcurve"/>
      <point x="140.0" y="480.0"/>
      <point x="187.71238938053096" y="471.5"/>
      <point x="210.5" y="490.5" type="qcurve"/>
      <point x="234.08695652173913" y="510.5"/>
      <point x="244.0" y="568.0"/>
      <point x="228.5" y="594.0" type="qcurve"/>
      <point x="213.0" y="621.0"/>
      <point x="165.58695652173913" y="629.5"/>
      <point x="142.0" y="609.5" type="qcurve"/>
      <point x="118.30088495575221" y="590.5"/>
      <point x="109.5" y="533.0"/>
    </contour>
  </outline>
</glyph>
<glyph name="Oslash" format="2">
  <advance width="779"/>
  <unicode hex="00D8"/>
  <note>
Oslash
</note>
  <outline>
    <contour>
      <point x="118.5" y="-31.5" type="line"/>
      <point x="70.0" y="11.0" type="line"/>
      <point x="660.0" y="733.0" type="line"/>
      <point x="711.0" y="693.5" type="line"/>
    </contour>
    <contour>
      <point x="392.5" y="707.5" type="qcurve"/>
      <point x="541.5" y="707.5"/>
      <point x="736.0" y="503.5"/>
      <point x="736.0" y="348.5" type="qcurve"/>
      <point x="736.0" y="193.5"/>
      <point x="541.5" y="-10.0"/>
      <point x="392.5" y="-10.0" type="qcurve"/>
      <point x="243.5" y="-10.0"/>
      <point x="49.5" y="193.0"/>
      <point x="49.5" y="348.5" type="qcurve"/>
      <point x="49.5" y="504.0"/>
      <point x="243.5" y="707.5"/>
    </contour>
    <contour>
      <point x="392.5" y="67.5" type="qcurve" smooth="yes"/>
      <point x="506.5" y="67.5"/>
      <point x="654.5" y="226.5"/>
      <point x="654.5" y="348.5" type="qcurve"/>
      <point x="654.5" y="470.5"/>
      <point x="506.5" y="630.0"/>
      <point x="392.5" y="630.0" type="qcurve" smooth="yes"/>
      <point x="278.0" y="630.0"/>
      <point x="131.0" y="471.0"/>
      <point x="131.0" y="348.5" type="qcurve"/>
      <point x="131.0" y="226.0"/>
      <point x="278.0" y="67.5"/>
    </contour>
  </outline>
</glyph>
<glyph name="Thorn" format="2">
  <advance width="612"/>
  <unicode hex="00DE"/>
  <note>
Thorn
</note>
  <outline>
    <contour>
      <point x="103.0" y="700.0" type="line"/>
      <point x="182.0" y="700.0" type="line"/>
      <point x="182.0" y="0.0" type="line"/>
      <point x="103.0" y="0.0" type="line"/>
    </contour>
    <contour>
      <point x="167.0" y="151.0" type="line"/>
      <point x="166.0" y="230.0" type="line"/>
      <point x="364.0" y="230.0" type="line" smooth="yes"/>
      <point x="417.0" y="230.0"/>
      <point x="482.5" y="306.0"/>
      <point x="482.5" y="358.0" type="qcurve" smooth="yes"/>
      <point x="482.5" y="410.5"/>
      <point x="416.0" y="484.0"/>
      <point x="364.0" y="484.0" type="qcurve"/>
      <point x="142.0" y="484.0" type="line"/>
      <point x="127.5" y="563.0" type="line"/>
      <point x="366.0" y="563.0" type="line" smooth="yes"/>
      <point x="449.0" y="563.0"/>
      <point x="564.0" y="444.0"/>
      <point x="564.0" y="358.0" type="qcurve" smooth="yes"/>
      <point x="564.0" y="272.0"/>
      <point x="449.0" y="151.0"/>
      <point x="365.5" y="151.0" type="qcurve"/>
    </contour>
  </outline>
</glyph>
<glyph name="eth" format="2">
  <advance width="574"/>
  <unicode hex="00F0"/>
  <note>
eth
</note>
  <outline>
    <contour>
      <point x="534.5" y="273.5" type="qcurve"/>
      <point x="534.5" y="149.5"/>
      <point x="395.5" y="-8.5"/>
      <point x="287.5" y="-8.5" type="qcurve"/>
      <point x="182.0" y="-8.5"/>
      <point x="40.0" y="146.5"/>
      <point x="40.0" y="262.5" type="qcurve"/>
      <point x="40.0" y="374.0"/>
      <point x="183.5" y="527.5"/>
      <point x="285.5" y="527.5" type="qcurve"/>
      <point x="360.0" y="527.5"/>
      <point x="466.5" y="433.5"/>
      <point x="485.5" y="363.0" type="qcurve"/>
      <point x="449.5" y="380.0" type="line"/>
      <point x="442.5" y="488.5"/>
      <point x="306.17833206413997" y="649.1630293523532"/>
      <point x="179.5" y="681.0" type="qcurve"/>
      <point x="211.0" y="739.5" type="line"/>
      <point x="359.5" y="703.5"/>
      <point x="534.5" y="461.0"/>
    </contour>
    <contour>
      <point x="115.0" y="262.5" type="qcurve"/>
      <point x="115.0" y="177.5"/>
      <point x="213.5" y="64.5"/>
      <point x="287.5" y="64.5" type="qcurve"/>
      <point x="361.0" y="64.5"/>
      <point x="459.5" y="177.5"/>
      <point x="459.5" y="262.5" type="qcurve"/>
      <point x="459.5" y="345.5"/>
      <point x="361.0" y="456.5"/>
      <point x="287.5" y="456.5" type="qcurve"/>
      <point x="213.5" y="456.5"/>
      <point x="115.0" y="346.0"/>
    </contour>
    <contour>
      <point x="368.5" y="590.5" type="line"/>
      <point x="158.0" y="539.5" type="line"/>
      <point x="147.5" y="592.5" type="line"/>
      <point x="316.0" y="636.0" type="line"/>
      <point x="358.5" y="650.0" type="line"/>
      <point x="487.0" y="681.0" type="line"/>
      <point x="501.5" y="627.5" type="line"/>
      <point x="401.0" y="602.5" type="line"/>
    </contour>
  </outline>
</glyph>
<glyph name="thorn" format="2">
  <advance width="623"/>
  <unicode hex="00FE"/>
  <note>
thorn
</note>
  <outline>
    <contour>
      <point x="340.0" y="532.5" type="qcurve"/>
      <point x="445.0" y="532.5"/>
      <point x="587.0" y="379.5"/>
      <point x="587.0" y="261.5" type="qcurve"/>
      <point x="587.0" y="144.5"/>
      <point x="447.0" y="-9.5"/>
      <point x="341.5" y="-9.5" type="qcurve"/>
      <point x="267.5" y="-9.5"/>
      <point x="147.5" y="76.0"/>
      <point x="132.5" y="132.5" type="qcurve"/>
      <point x="150.5" y="133.0" type="line"/>
      <point x="150.5" y="-220.0" type="line"/>
      <point x="73.5" y="-220.0" type="line"/>
      <point x="73.5" y="740.0" type="line"/>
      <point x="150.5" y="740.0" type="line"/>
      <point x="150.5" y="395.0" type="line"/>
      <point x="137.5" y="393.5" type="line"/>
      <point x="151.5" y="449.5"/>
      <point x="268.5" y="532.5"/>
    </contour>
    <contour>
      <point x="511.0" y="261.5" type="qcurve"/>
      <point x="511.0" y="347.5"/>
      <point x="408.5" y="460.0"/>
      <point x="329.0" y="460.0" type="qcurve"/>
      <point x="249.5" y="460.0"/>
      <point x="146.0" y="348.5"/>
      <point x="146.0" y="262.0" type="qcurve"/>
      <point x="146.0" y="175.5"/>
      <point x="250.0" y="63.0"/>
      <point x="329.0" y="63.0" type="qcurve"/>
      <point x="408.5" y="63.0"/>
      <point x="511.0" y="176.0"/>
    </contour>
  </outline>
</glyph>
<glyph name="Aogonek" format="2">
  <advance width="683"/>
  <unicode hex="0104"/>
  <outline>
    <contour>
      <point x="595.5" y="13.0" type="line"/>
      <point x="562.0" y="2.5" type="line"/>
      <point x="395.5" y="450.0" type="line" smooth="yes"/>
      <point x="385.0" y="478.0"/>
      <point x="368.5" y="525.5"/>
      <point x="355.0" y="566.0" type="qcurve" smooth="yes"/>
      <point x="346.0" y="592.5"/>
      <point x="333.5" y="630.5"/>
      <point x="326.5" y="650.5" type="qcurve"/>
      <point x="342.0" y="651.5" type="line"/>
      <point x="335.0" y="630.5"/>
      <point x="321.0" y="589.5"/>
      <point x="311.5" y="560.0" type="qcurve" smooth="yes"/>
      <point x="298.5" y="521.5"/>
      <point x="282.5" y="475.0"/>
      <point x="272.0" y="448.0" type="qcurve" smooth="yes"/>
      <point x="105.5" y="0.0" type="line"/>
      <point x="25.0" y="0.0" type="line"/>
      <point x="290.5" y="700.0" type="line"/>
      <point x="384.5" y="700.0" type="line"/>
      <point x="641.0" y="17.5" type="line"/>
      <point x="636.0" y="0.0" type="line"/>
      <point x="577.0" y="-24.5"/>
      <point x="504.5" y="-80.5"/>
      <point x="504.5" y="-109.5" type="qcurve" smooth="yes"/>
      <point x="504.5" y="-131.0"/>
      <point x="538.0" y="-161.0"/>
      <point x="562.5" y="-161.0" type="qcurve" smooth="yes"/>
      <point x="580.5" y="-161.0"/>
      <point x="615.0" y="-145.0"/>
      <point x="629.5" y="-132.0" type="qcurve"/>
      <point x="665.5" y="-173.5" type="line"/>
      <point x="639.5" y="-197.0"/>
      <point x="583.5" y="-221.0"/>
      <point x="551.5" y="-221.0" type="qcurve" smooth="yes"/>
      <point x="501.5" y="-221.0"/>
      <point x="434.0" y="-162.0"/>
      <point x="434.0" y="-117.5" type="qcurve" smooth="yes"/>
      <point x="434.0" y="-66.5"/>
      <point x="529.5" y="19.5"/>
      <point x="595.5" y="41.0" type="qcurve"/>
    </contour>
    <contour>
      <point x="338.0" y="192.5" type="line"/>
      <point x="154.0" y="192.5" type="line"/>
      <point x="185.0" y="269.5" type="line"/>
      <point x="338.0" y="269.5" type="line"/>
    </contour>
    <contour>
      <point x="517.0" y="192.5" type="line"/>
      <point x="338.0" y="192.5" type="line"/>
      <point x="338.0" y="269.5" type="line"/>
      <point x="499.0" y="269.5" type="line"/>
    </contour>
  </outline>
</glyph>
<glyph name="aogonek" format="2">
  <advance width="614"/>
  <unicode hex="0105"/>
  <note>
aogonek
</note>
  <outline>
    <contour>
      <point x="411.5" y="29.0" type="qcurve" smooth="yes"/>
      <point x="383.5" y="10.5"/>
      <point x="318.5" y="-10.0"/>
      <point x="283.5" y="-10.0" type="qcurve"/>
      <point x="176.5" y="-10.0"/>
      <point x="35.0" y="144.0"/>
      <point x="35.0" y="262.0" type="qcurve"/>
      <point x="35.0" y="380.0"/>
      <point x="177.5" y="533.5"/>
      <point x="282.0" y="533.5" type="qcurve"/>
      <point x="354.5" y="533.5"/>
      <point x="470.5" y="455.5"/>
      <point x="491.5" y="391.0" type="qcurve"/>
      <point x="469.0" y="388.0" type="line"/>
      <point x="471.5" y="522.5" type="line"/>
      <point x="547.5" y="522.5" type="line"/>
      <point x="547.5" y="0.0" type="line"/>
      <point x="481.5" y="-29.0"/>
      <point x="419.5" y="-84.0"/>
      <point x="419.5" y="-110.0" type="qcurve" smooth="yes"/>
      <point x="419.5" y="-131.5"/>
      <point x="448.5" y="-161.0"/>
      <point x="473.5" y="-161.0" type="qcurve" smooth="yes"/>
      <point x="489.5" y="-161.0"/>
      <point x="521.0" y="-146.5"/>
      <point x="538.5" y="-130.5" type="qcurve"/>
      <point x="574.5" y="-172.0" type="line"/>
      <point x="548.5" y="-195.5"/>
      <point x="494.5" y="-221.0"/>
      <point x="461.5" y="-221.0" type="qcurve" smooth="yes"/>
      <point x="413.5" y="-221.0"/>
      <point x="350.0" y="-165.0"/>
      <point x="350.0" y="-120.5" type="qcurve" smooth="yes"/>
      <point x="350.0" y="-78.0"/>
      <point x="420.5" y="-4.5"/>
      <point x="510.0" y="38.0" type="qcurve"/>
      <point x="510.0" y="0.0" type="line"/>
      <point x="470.5" y="0.0" type="line"/>
      <point x="470.5" y="131.5" type="line"/>
      <point x="487.5" y="128.0" type="line"/>
      <point x="474.5" y="93.0"/>
      <point x="438.0" y="47.0"/>
    </contour>
    <contour>
      <point x="114.0" y="262.5" type="qcurve"/>
      <point x="114.0" y="176.0"/>
      <point x="214.5" y="62.5"/>
      <point x="294.0" y="62.5" type="qcurve"/>
      <point x="372.0" y="62.5"/>
      <point x="474.5" y="175.0"/>
      <point x="474.5" y="262.5" type="qcurve"/>
      <point x="474.5" y="349.0"/>
      <point x="372.5" y="461.0"/>
      <point x="294.0" y="461.0" type="qcurve"/>
      <point x="215.0" y="461.0"/>
      <point x="114.0" y="349.0"/>
    </contour>
  </outline>
</glyph>
<glyph name="eogonek" format="2">
  <advance width="566"/>
  <unicode hex="0119"/>
  <note>
eogonek
</note>
  <outline>
    <contour>
      <point x="418.0" y="48.0" type="qcurve"/>
      <point x="431.0" y="45.5" type="line"/>
      <point x="402.0" y="27.5"/>
      <point x="331.5" y="-10.0"/>
      <point x="306.5" y="-10.0" type="qcurve"/>
      <point x="189.0" y="-10.0"/>
      <point x="39.0" y="140.0"/>
      <point x="39.0" y="259.0" type="qcurve"/>
      <point x="39.0" y="379.5"/>
      <point x="184.5" y="533.5"/>
      <point x="298.5" y="534.0" type="qcurve"/>
      <point x="404.0" y="533.5"/>
      <point x="532.0" y="392.0"/>
      <point x="532.0" y="282.0" type="qcurve"/>
      <point x="531.0" y="246.5" type="line"/>
      <point x="93.5" y="246.5" type="line"/>
      <point x="82.0" y="310.5" type="line"/>
      <point x="477.0" y="310.5" type="line"/>
      <point x="454.5" y="287.0" type="line"/>
      <point x="454.5" y="317.0" type="line"/>
      <point x="452.5" y="371.5"/>
      <point x="369.5" y="461.5"/>
      <point x="298.0" y="461.5" type="qcurve"/>
      <point x="219.0" y="461.5"/>
      <point x="119.0" y="366.0"/>
      <point x="116.5" y="262.5" type="qcurve"/>
      <point x="118.0" y="171.0"/>
      <point x="224.0" y="62.0"/>
      <point x="316.0" y="62.0" type="qcurve"/>
      <point x="354.0" y="62.0"/>
      <point x="426.5" y="87.0"/>
      <point x="470.5" y="124.0" type="qcurve"/>
      <point x="509.0" y="68.0" type="line"/>
      <point x="497.0" y="58.0"/>
      <point x="448.5" y="23.5"/>
      <point x="414.0" y="2.0" type="qcurve" smooth="yes"/>
      <point x="371.0" y="-27.0"/>
      <point x="335.0" y="-79.0"/>
      <point x="335.0" y="-105.0" type="qcurve" smooth="yes"/>
      <point x="335.0" y="-128.5"/>
      <point x="364.0" y="-161.0"/>
      <point x="389.0" y="-161.0" type="qcurve" smooth="yes"/>
      <point x="405.85074626865674" y="-161.0"/>
      <point x="439.0" y="-146.0"/>
      <point x="457.0" y="-129.5" type="qcurve"/>
      <point x="487.5" y="-174.5" type="line"/>
      <point x="461.8921481830178" y="-197.13781065503278"/>
      <point x="406.46875" y="-221.0"/>
      <point x="376.0" y="-221.0" type="qcurve" smooth="yes"/>
      <point x="327.13461538461536" y="-221.0"/>
      <point x="265.5" y="-165.0"/>
      <point x="265.5" y="-117.5" type="qcurve" smooth="yes"/>
      <point x="265.5" y="-74.5"/>
      <point x="328.5" y="0.5"/>
    </contour>
  </outline>
</glyph>
<glyph name="Hbar" format="2">
  <advance width="801"/>
  <unicode hex="0126"/>
  <note>
Hbar
</note>
  <outline>
    <contour>
      <point x="135.5" y="502.0" type="line"/>
      <point x="42.5" y="502.0" type="line"/>
      <point x="42.5" y="577.0" type="line"/>
      <point x="140.5" y="577.0" type="line"/>
      <point x="219.0" y="572.0" type="line"/>
      <point x="558.0" y="572.0" type="line"/>
      <point x="642.5" y="577.0" type="line"/>
      <point x="758.0" y="577.0" type="line"/>
      <point x="758.0" y="502.0" type="line"/>
      <point x="646.0" y="502.0" type="line"/>
      <point x="570.0" y="507.0" type="line"/>
      <point x="209.0" y="507.0" type="line"/>
    </contour>
    <contour>
      <point x="127.0" y="700.0" type="line"/>
      <point x="206.0" y="700.0" type="line"/>
      <point x="206.0" y="0.0" type="line"/>
      <point x="127.0" y="0.0" type="line"/>
    </contour>
    <contour>
      <point x="594.5" y="700.0" type="line"/>
      <point x="673.5" y="700.0" type="line"/>
      <point x="673.5" y="0.0" type="line"/>
      <point x="594.5" y="0.0" type="line"/>
    </contour>
    <contour>
      <point x="165.0" y="310.5" type="line"/>
      <point x="165.0" y="387.5" type="line"/>
      <point x="627.5" y="387.5" type="line"/>
      <point x="627.5" y="310.5" type="line"/>
    </contour>
  </outline>
</glyph>
<glyph name="kgreenlandic" format="2">
  <advance width="556"/>
  <unicode hex="0138"/>
  <outline>
    <contour>
      <point x="148.0" y="0.0" type="line"/>
      <point x="74.5" y="0.0" type="line"/>
      <point x="74.5" y="522.5" type="line"/>
      <point x="148.0" y="522.5" type="line"/>
    </contour>
    <contour>
      <point x="404.0" y="522.5" type="line"/>
      <point x="497.5" y="522.5" type="line"/>
      <point x="246.5" y="274.0" type="line"/>
      <point x="134.5" y="163.0" type="line"/>
      <point x="132.0" y="245.5" type="line"/>
    </contour>
    <contour>
      <point x="514.0" y="-0.5" type="line"/>
      <point x="419.5" y="0.0" type="line"/>
      <point x="203.0" y="275.0" type="line"/>
      <point x="254.5" y="317.0" type="line"/>
    </contour>
  </outline>
</glyph>
<glyph name="Lslash" format="2">
  <advance width="587"/>
  <unicode hex="0141"/>
  <note>
Lslash
</note>
  <outline>
    <contour>
      <point x="174.5" y="77.0" type="line"/>
      <point x="537.0" y="77.0" type="line"/>
      <point x="537.0" y="0.0" type="line"/>
      <point x="122.5" y="0.0" type="line"/>
      <point x="122.5" y="700.0" type="line"/>
      <point x="201.5" y="700.0" type="line"/>
      <point x="201.5" y="53.0" type="line"/>
    </contour>
    <contour>
      <point x="46.5" y="273.5" type="line"/>
      <point x="23.5" y="330.0" type="line"/>
      <point x="306.0" y="457.5" type="line"/>
      <point x="330.5" y="398.0" type="line"/>
    </contour>
  </outline>
</glyph>
<glyph name="OE" format="2">
  <advance width="1018"/>
  <unicode hex="0152"/>
  <note>
OE
</note>
  <outline>
    <contour>
      <point x="49.0" y="350.0" type="qcurve" smooth="yes"/>
      <point x="49.0" y="504.5"/>
      <point x="239.0" y="700.0"/>
      <point x="385.5" y="700.0" type="qcurve"/>
      <point x="945.5" y="700.0" type="line"/>
      <point x="945.5" y="623.0" type="line"/>
      <point x="581.0" y="623.0" type="line"/>
      <point x="600.5" y="647.0" type="line"/>
      <point x="600.5" y="379.0" type="line"/>
      <point x="581.0" y="398.5" type="line"/>
      <point x="889.5" y="398.5" type="line"/>
      <point x="889.5" y="321.5" type="line"/>
      <point x="582.5" y="321.5" type="line"/>
      <point x="600.5" y="341.0" type="line"/>
      <point x="600.5" y="58.5" type="line"/>
      <point x="582.0" y="77.0" type="line"/>
      <point x="943.5" y="77.0" type="line"/>
      <point x="943.5" y="0.0" type="line"/>
      <point x="375.5" y="0.0" type="line" smooth="yes"/>
      <point x="233.0" y="0.0"/>
      <point x="49.0" y="195.0"/>
    </contour>
    <contour>
      <point x="557.0" y="77.0" type="line"/>
      <point x="521.5" y="38.5" type="line"/>
      <point x="521.5" y="660.5" type="line"/>
      <point x="557.0" y="623.0" type="line"/>
      <point x="389.5" y="623.0" type="line" smooth="yes"/>
      <point x="275.5" y="623.0"/>
      <point x="130.5" y="472.5"/>
      <point x="130.5" y="350.0" type="qcurve" smooth="yes"/>
      <point x="130.5" y="227.0"/>
      <point x="270.0" y="77.0"/>
      <point x="379.5" y="77.0" type="qcurve" smooth="yes"/>
    </contour>
  </outline>
</glyph>
<glyph name="florin" format="2">
  <advance width="519"/>
  <unicode hex="0192"/>
  <note>
florin
</note>
  <outline>
    <contour>
      <point x="96.0" y="-31.0" type="qcurve" smooth="yes"/>
      <point x="70.0" y="-31.0"/>
      <point x="20.0" y="-13.0"/>
      <point x="4.0" y="1.0" type="qcurve"/>
      <point x="27.5" y="57.5" type="line"/>
      <point x="46.20914750899916" y="44.24026944908765"/>
      <point x="74.3625" y="34.5"/>
      <point x="93.5" y="34.5" type="qcurve" smooth="yes"/>
      <point x="126.98765432098766" y="34.5"/>
      <point x="161.7744605085664" y="82.54991410899974"/>
      <point x="168.5" y="119.0" type="qcurve"/>
      <point x="242.0" y="538.0" type="line" smooth="yes"/>
      <point x="255.5" y="615.5"/>
      <point x="333.0" y="692.0"/>
      <point x="401.0" y="692.0" type="qcurve" smooth="yes"/>
      <point x="434.0" y="692.0"/>
      <point x="490.5" y="674.5"/>
      <point x="516.0" y="657.0" type="qcurve"/>
      <point x="490.0" y="603.0" type="line"/>
      <point x="465.0" y="615.0"/>
      <point x="428.0" y="626.0"/>
      <point x="412.0" y="626.0" type="qcurve" smooth="yes"/>
      <point x="370.0" y="626.0"/>
      <point x="325.0" y="577.0"/>
      <point x="315.0" y="524.5" type="qcurve"/>
      <point x="243.0" y="119.0" type="line" smooth="yes"/>
      <point x="229.0" y="43.0"/>
      <point x="156.92517006802723" y="-31.0"/>
    </contour>
    <contour>
      <point x="443.0" y="381.5" type="line"/>
      <point x="74.0" y="382.0" type="line"/>
      <point x="74.0" y="446.5" type="line"/>
      <point x="443.0" y="446.0" type="line"/>
    </contour>
  </outline>
</glyph>
<glyph name="nhookleft" format="2">
  <advance width="610"/>
  <unicode hex="0272"/>
  <outline>
    <contour>
      <point x="346.0" y="533.5" type="qcurve"/>
      <point x="432.5" y="533.5"/>
      <point x="521.5" y="427.5"/>
      <point x="521.5" y="317.5" type="qcurve"/>
      <point x="521.5" y="0.0" type="line"/>
      <point x="445.0" y="0.0" type="line"/>
      <point x="445.0" y="313.0" type="line"/>
      <point x="445.0" y="390.5"/>
      <point x="383.0" y="464.0"/>
      <point x="321.5" y="462.5" type="qcurve"/>
      <point x="253.5" y="462.5"/>
      <point x="164.0" y="376.5"/>
      <point x="164.0" y="318.0" type="qcurve"/>
      <point x="164.0" y="0.0" type="line"/>
      <point x="138.0" y="0.0"/>
      <point x="113.5" y="0.0"/>
      <point x="87.5" y="0.0" type="qcurve"/>
      <point x="87.5" y="522.5" type="line"/>
      <point x="163.0" y="522.5" type="line"/>
      <point x="165.5" y="413.5" type="line"/>
      <point x="153.5" y="407.5" type="line"/>
      <point x="169.0" y="458.0"/>
      <point x="281.0" y="533.5"/>
    </contour>
    <contour>
      <point x="87.5" y="12.0" type="line"/>
      <point x="164.0" y="18.5" type="line"/>
      <point x="164.0" y="-38.0" type="line" smooth="yes"/>
      <point x="164.0" y="-108.5"/>
      <point x="79.5" y="-196.0"/>
      <point x="6.0" y="-196.0" type="qcurve"/>
      <point x="-24.0" y="-135.0" type="line"/>
      <point x="39.5" y="-135.0"/>
      <point x="87.5" y="-71.0"/>
      <point x="87.5" y="0.5" type="qcurve"/>
    </contour>
  </outline>
</glyph>
<glyph name="verticallinelowmod" format="2">
  <advance width="231"/>
  <unicode hex="02CC"/>
  <outline>
    <contour>
      <point x="152.0" y="197.0" type="line"/>
      <point x="152.0" y="-147.0" type="line"/>
      <point x="78.5" y="-147.0" type="line"/>
      <point x="78.5" y="197.0" type="line"/>
    </contour>
  </outline>
</glyph>
<glyph name="ogonek" format="2">
  <advance width="295"/>
  <unicode hex="02DB"/>
  <outline>
    <contour>
      <point x="144.0" y="-211.0" type="qcurve" smooth="yes"/>
      <point x="100.5" y="-211.0"/>
      <point x="38.5" y="-153.5"/>
      <point x="38.5" y="-111.0" type="qcurve" smooth="yes"/>
      <point x="38.5" y="-61.5"/>
      <point x="120.0" y="15.5"/>
      <point x="193.5" y="38.0" type="qcurve"/>
      <point x="221.5" y="30.0" type="line"/>
      <point x="221.5" y="-0.5" type="line"/>
      <point x="171.5" y="-16.0"/>
      <point x="107.0" y="-73.5"/>
      <point x="107.0" y="-103.0" type="qcurve" smooth="yes"/>
      <point x="107.0" y="-124.0"/>
      <point x="132.0" y="-151.5"/>
      <point x="154.5" y="-151.5" type="qcurve" smooth="yes"/>
      <point x="169.0" y="-151.5"/>
      <point x="193.5" y="-137.0"/>
      <point x="205.5" y="-121.0" type="qcurve"/>
      <point x="250.0" y="-153.0" type="line"/>
      <point x="235.5" y="-179.0"/>
      <point x="180.0" y="-211.0"/>
    </contour>
  </outline>
</glyph>
<glyph name="tildecomb" format="2">
  <advance width="210"/>
  <unicode hex="0303"/>
  <outline>
    <contour>
      <point x="107.0" y="622.5" type="qcurve"/>
      <point x="50.0" y="629.5" type="line"/>
      <point x="53.5" y="676.5"/>
      <point x="111.0" y="738.0"/>
      <point x="154.0" y="738.0" type="qcurve" smooth="yes"/>
      <point x="173.0" y="738.0"/>
      <point x="206.5" y="722.0"/>
      <point x="228.5" y="699.0" type="qcurve" smooth="yes"/>
      <point x="244.0" y="683.5"/>
      <point x="260.0" y="675.5"/>
      <point x="268.0" y="675.5" type="qcurve"/>
      <point x="282.5" y="675.5"/>
      <point x="301.5" y="704.0"/>
      <point x="302.0" y="724.0" type="qcurve"/>
      <point x="360.0" y="714.0" type="line"/>
      <point x="356.5" y="674.0"/>
      <point x="306.0" y="618.0"/>
      <point x="267.0" y="618.0" type="qcurve"/>
      <point x="245.0" y="618.0"/>
      <point x="208.0" y="636.5"/>
      <point x="184.0" y="660.5" type="qcurve" smooth="yes"/>
      <point x="170.5" y="674.0"/>
      <point x="156.5" y="680.0"/>
      <point x="150.5" y="680.0" type="qcurve" smooth="yes"/>
      <point x="131.5" y="680.0"/>
      <point x="109.0" y="651.0"/>
    </contour>
  </outline>
</glyph>
<glyph name="hungarumlautcomb" format="2">
  <unicode hex="030B"/>
  <outline>
    <contour>
      <point x="223.0" y="678.5" type="line"/>
      <point x="59.0" y="581.0" type="line"/>
      <point x="31.5" y="622.0" type="line"/>
      <point x="174.0" y="742.0" type="line"/>
    </contour>
    <contour>
      <point x="397.5" y="678.5" type="line"/>
      <point x="233.5" y="581.0" type="line"/>
      <point x="206.0" y="622.0" type="line"/>
      <point x="348.5" y="742.0" type="line"/>
    </contour>
  </outline>
</glyph>
<glyph name="caroncomb" format="2">
  <advance width="181"/>
  <unicode hex="030C"/>
  <outline>
    <contour>
      <point x="196.0" y="672.5" type="line"/>
      <point x="166.0" y="672.5" type="line"/>
      <point x="292.0" y="757.5" type="line"/>
      <point x="325.0" y="728.5" type="line"/>
      <point x="218.0" y="621.5" type="line"/>
      <point x="144.0" y="621.5" type="line"/>
      <point x="37.0" y="728.5" type="line"/>
      <point x="70.0" y="757.5" type="line"/>
    </contour>
  </outline>
</glyph>
<glyph name="dieresisbelowcomb" format="2">
  <unicode hex="0324"/>
  <outline>
    <contour>
      <point x="289.0" y="-150.0" type="qcurve"/>
      <point x="264.0" y="-150.0"/>
      <point x="241.0" y="-129.5"/>
      <point x="241.0" y="-107.5" type="qcurve"/>
      <point x="241.0" y="-94.0" type="line" smooth="yes"/>
      <point x="241.0" y="-72.5"/>
      <point x="265.0" y="-51.5"/>
      <point x="290.0" y="-51.5" type="qcurve"/>
      <point x="315.5" y="-51.5"/>
      <point x="339.5" y="-71.5"/>
      <point x="339.5" y="-94.0" type="qcurve"/>
      <point x="339.5" y="-107.5" type="line" smooth="yes"/>
      <point x="339.5" y="-130.5"/>
      <point x="316.5" y="-150.0"/>
    </contour>
    <contour>
      <point x="102.5" y="-150.0" type="qcurve"/>
      <point x="77.5" y="-150.0"/>
      <point x="54.5" y="-129.5"/>
      <point x="54.5" y="-107.5" type="qcurve"/>
      <point x="54.5" y="-94.0" type="line" smooth="yes"/>
      <point x="54.5" y="-72.5"/>
      <point x="78.5" y="-51.5"/>
      <point x="102.5" y="-51.5" type="qcurve"/>
      <point x="129.0" y="-51.5"/>
      <point x="153.0" y="-71.0"/>
      <point x="153.0" y="-94.0" type="qcurve"/>
      <point x="153.0" y="-107.5" type="line" smooth="yes"/>
      <point x="153.0" y="-130.5"/>
      <point x="130.0" y="-150.0"/>
    </contour>
  </outline>
</glyph>
<glyph name="ogonekcomb" format="2">
  <advance width="148"/>
  <unicode hex="0328"/>
  <outline>
    <contour>
      <point x="144.0" y="-210.5" type="qcurve" smooth="yes"/>
      <point x="100.5" y="-210.5"/>
      <point x="38.5" y="-153.0"/>
      <point x="38.5" y="-110.5" type="qcurve" smooth="yes"/>
      <point x="38.5" y="-61.0"/>
      <point x="120.0" y="16.0"/>
      <point x="193.5" y="38.5" type="qcurve"/>
      <point x="221.5" y="30.5" type="line"/>
      <point x="221.5" y="0.0" type="line"/>
      <point x="171.5" y="-15.5"/>
      <point x="107.0" y="-73.0"/>
      <point x="107.0" y="-102.5" type="qcurve" smooth="yes"/>
      <point x="107.0" y="-123.5"/>
      <point x="132.0" y="-151.0"/>
      <point x="154.5" y="-151.0" type="qcurve" smooth="yes"/>
      <point x="169.0" y="-151.0"/>
      <point x="193.5" y="-136.5"/>
      <point x="205.5" y="-120.5" type="qcurve"/>
      <point x="250.0" y="-152.5" type="line"/>
      <point x="235.5" y="-178.5"/>
      <point x="180.0" y="-210.5"/>
    </contour>
  </outline>
</glyph>
<glyph name="strokeshortcomb" format="2">
  <unicode hex="0335"/>
  <outline>
    <contour>
      <point x="318.0" y="263.0" type="line"/>
      <point x="50.0" y="263.0" type="line"/>
      <point x="50.0" y="330.5" type="line"/>
      <point x="318.0" y="330.5" type="line"/>
    </contour>
  </outline>
</glyph>
<glyph name="hamzabelow-ar" format="2">
  <unicode hex="0655"/>
  <outline>
    <contour>
      <point x="164.0" y="-193.0" type="qcurve"/>
      <point x="215.0" y="-193.0" type="line"/>
      <point x="215.0" y="-250.0" type="line"/>
      <point x="20.0" y="-250.0" type="line"/>
      <point x="20.0" y="-193.0" type="line"/>
      <point x="53.0" y="-193.0" type="line"/>
      <point x="46.0" y="-183.0"/>
      <point x="39.0" y="-161.0"/>
      <point x="39.0" y="-149.0" type="qcurve" smooth="yes"/>
      <point x="39.0" y="-110.0"/>
      <point x="93.0" y="-60.0"/>
      <point x="136.0" y="-60.0" type="qcurve" smooth="yes"/>
      <point x="154.0" y="-60.0"/>
      <point x="188.0" y="-68.0"/>
      <point x="203.0" y="-76.0" type="qcurve"/>
      <point x="180.0" y="-126.0" type="line"/>
      <point x="171.0" y="-121.0"/>
      <point x="151.0" y="-117.0"/>
      <point x="140.0" y="-117.0" type="qcurve" smooth="yes"/>
      <point x="120.0" y="-117.0"/>
      <point x="97.0" y="-136.0"/>
      <point x="97.0" y="-152.0" type="qcurve" smooth="yes"/>
      <point x="97.0" y="-171.0"/>
      <point x="132.0" y="-193.0"/>
    </contour>
  </outline>
</glyph>
<glyph name="bullet" format="2">
  <advance width="347"/>
  <unicode hex="2022"/>
  <note>
bullet
</note>
  <outline>
    <contour>
      <point x="293.5" y="348.5" type="qcurve" smooth="yes"/>
      <point x="293.5" y="299.5"/>
      <point x="223.0" y="230.0"/>
      <point x="172.5" y="230.0" type="qcurve" smooth="yes"/>
      <point x="124.0" y="230.0"/>
      <point x="53.5" y="299.5"/>
      <point x="53.5" y="348.5" type="qcurve" smooth="yes"/>
      <point x="53.5" y="398.5"/>
      <point x="123.0" y="469.0"/>
      <point x="172.5" y="469.0" type="qcurve" smooth="yes"/>
      <point x="223.0" y="469.0"/>
      <point x="293.5" y="398.5"/>
    </contour>
  </outline>
</glyph>
<glyph name="manat" format="2">
  <advance width="759"/>
  <unicode hex="20BC"/>
  <outline>
    <contour>
      <point x="409.5" y="801.0" type="line"/>
      <point x="409.5" y="254.0" type="line"/>
      <point x="336.0" y="254.0" type="line"/>
      <point x="336.0" y="801.0" type="line"/>
    </contour>
    <contour>
      <point x="180.0" y="-7.0" type="line"/>
      <point x="104.0" y="-7.0" type="line"/>
      <point x="104.0" y="425.0" type="line"/>
      <point x="104.0" y="544.5"/>
      <point x="260.5" y="700.0"/>
      <point x="380.5" y="700.0" type="qcurve"/>
      <point x="499.5" y="700.0"/>
      <point x="654.5" y="544.5"/>
      <point x="654.5" y="425.0" type="qcurve"/>
      <point x="654.5" y="-7.0" type="line"/>
      <point x="575.5" y="-7.0" type="line"/>
      <point x="575.5" y="416.0" type="line"/>
      <point x="575.5" y="505.0"/>
      <point x="463.0" y="623.0"/>
      <point x="380.5" y="623.0" type="qcurve"/>
      <point x="294.5" y="623.0"/>
      <point x="180.0" y="505.0"/>
      <point x="180.0" y="416.0" type="qcurve"/>
    </contour>
  </outline>
</glyph>
<glyph name="numero" format="2">
  <advance width="1177"/>
  <unicode hex="2116"/>
  <outline>
    <contour>
      <point x="1142.0" y="203.0" type="line"/>
      <point x="796.0" y="203.0" type="line"/>
      <point x="796.0" y="270.5" type="line"/>
      <point x="1142.0" y="270.5" type="line"/>
    </contour>
    <contour>
      <point x="959.0" y="708.0" type="qcurve"/>
      <point x="1033.0" y="708.0"/>
      <point x="1133.0" y="606.0"/>
      <point x="1133.0" y="531.0" type="qcurve"/>
      <point x="1133.0" y="457.0"/>
      <point x="1034.0" y="358.0"/>
      <point x="959.0" y="358.0" type="qcurve"/>
      <point x="885.0" y="358.0"/>
      <point x="788.0" y="456.0"/>
      <point x="788.0" y="531.0" type="qcurve"/>
      <point x="788.0" y="607.0"/>
      <point x="886.0" y="708.0"/>
    </contour>
    <contour>
      <point x="959.0" y="421.0" type="qcurve"/>
      <point x="1005.0" y="421.0"/>
      <point x="1062.0" y="482.0"/>
      <point x="1062.0" y="531.0" type="qcurve"/>
      <point x="1062.0" y="582.0"/>
      <point x="1005.0" y="645.0"/>
      <point x="959.0" y="645.0" type="qcurve"/>
      <point x="914.0" y="645.0"/>
      <point x="858.0" y="582.0"/>
      <point x="858.0" y="531.0" type="qcurve"/>
      <point x="858.0" y="482.0"/>
      <point x="914.0" y="421.0"/>
    </contour>
    <contour>
      <point x="605.0" y="443.5" type="qcurve"/>
      <point x="605.0" y="700.0" type="line"/>
      <point x="684.0" y="700.0" type="line"/>
      <point x="684.0" y="0.0" type="line"/>
      <point x="610.5" y="0.0" type="line"/>
      <point x="155.5" y="596.5" type="line"/>
      <point x="168.0" y="617.5" type="line"/>
      <point x="172.0" y="561.0"/>
      <point x="182.0" y="350.5"/>
      <point x="182.0" y="317.5" type="qcurve"/>
      <point x="182.0" y="0.0" type="line"/>
      <point x="103.0" y="0.0" type="line"/>
      <point x="103.0" y="700.0" type="line"/>
      <point x="174.5" y="700.0" type="line"/>
      <point x="631.5" y="95.0" type="line"/>
      <point x="617.5" y="77.5" type="line"/>
      <point x="610.5" y="129.5"/>
      <point x="605.5" y="330.5"/>
    </contour>
  </outline>
</glyph>
<glyph name="trademark" format="2">
  <advance width="767"/>
  <unicode hex="2122"/>
  <note>
trademark
</note>
  <outline>
    <contour>
      <point x="309.0" y="641.0" type="line"/>
      <point x="34.5" y="641.0" type="line"/>
      <point x="34.5" y="700.0" type="line"/>
      <point x="309.0" y="700.0" type="line"/>
    </contour>
    <contour>
      <point x="201.0" y="340.0" type="line"/>
      <point x="140.0" y="340.0" type="line"/>
      <point x="140.0" y="676.0" type="line"/>
      <point x="201.0" y="676.0" type="line"/>
    </contour>
    <contour>
      <point x="516.5" y="453.0" type="line"/>
      <point x="665.5" y="700.0" type="line"/>
      <point x="718.5" y="700.0" type="line"/>
      <point x="718.5" y="340.0" type="line"/>
      <point x="654.0" y="340.0" type="line"/>
      <point x="654.0" y="639.0" type="line"/>
      <point x="692.5" y="639.0" type="line"/>
      <point x="563.0" y="422.0" type="line"/>
      <point x="512.0" y="422.0" type="line"/>
      <point x="379.5" y="643.0" type="line"/>
      <point x="424.0" y="643.0" type="line"/>
      <point x="424.0" y="340.0" type="line"/>
      <point x="360.5" y="340.0" type="line"/>
      <point x="360.5" y="700.0" type="line"/>
      <point x="410.5" y="700.0" type="line"/>
      <point x="560.5" y="453.0" type="line"/>
    </contour>
  </outline>
</glyph>
<glyph name="emptyset" format="2">
  <advance width="621"/>
  <unicode hex="2205"/>
  <note>
emptyset
</note>
  <outline>
    <contour>
      <point x="89.0" y="-5.0" type="line"/>
      <point x="38.5" y="46.5" type="line"/>
      <point x="535.5" y="528.5" type="line"/>
      <point x="583.0" y="477.0" type="line"/>
    </contour>
    <contour>
      <point x="304.0" y="533.5" type="qcurve"/>
      <point x="419.5" y="533.5"/>
      <point x="571.0" y="380.5"/>
      <point x="571.0" y="263.0" type="qcurve"/>
      <point x="571.0" y="144.5"/>
      <point x="419.5" y="-10.0"/>
      <point x="304.0" y="-10.0" type="qcurve"/>
      <point x="188.0" y="-10.0"/>
      <point x="36.0" y="144.5"/>
      <point x="36.0" y="263.0" type="qcurve"/>
      <point x="36.0" y="380.5"/>
      <point x="188.0" y="533.5"/>
    </contour>
    <contour>
      <point x="304.0" y="62.0" type="qcurve"/>
      <point x="386.0" y="62.0"/>
      <point x="492.5" y="176.0"/>
      <point x="492.0" y="263.0" type="qcurve"/>
      <point x="492.5" y="349.5"/>
      <point x="386.0" y="461.5"/>
      <point x="304.0" y="461.5" type="qcurve"/>
      <point x="221.5" y="461.5"/>
      <point x="114.5" y="349.0"/>
      <point x="115.0" y="263.0" type="qcurve"/>
      <point x="114.5" y="176.0"/>
      <point x="221.5" y="62.0"/>
    </contour>
  </outline>
</glyph>
<glyph name="increment" format="2">
  <advance width="709"/>
  <unicode hex="2206"/>
  <note>
increment
</note>
  <outline>
    <contour>
      <point x="353.5" y="717.0" type="line"/>
      <point x="699.5" y="0.0" type="line"/>
      <point x="699.5" y="0.0" type="line"/>
      <point x="12.0" y="0.0" type="line"/>
      <point x="12.0" y="0.0" type="line"/>
      <point x="353.5" y="717.0" type="line"/>
    </contour>
    <contour>
      <point x="363.5" y="575.0" type="line"/>
      <point x="109.5" y="45.5" type="line"/>
      <point x="95.5" y="66.5" type="line"/>
      <point x="616.5" y="66.5" type="line"/>
      <point x="600.0" y="44.0" type="line"/>
      <point x="344.5" y="575.0" type="line"/>
    </contour>
  </outline>
</glyph>
<glyph name="radical" format="2">
  <advance width="684"/>
  <unicode hex="221A"/>
  <note>
radical
</note>
  <outline>
    <contour>
      <point x="257.0" y="-130.0" type="line"/>
      <point x="201.0" y="-130.0" type="line"/>
      <point x="25.0" y="309.0" type="line"/>
      <point x="107.5" y="309.0" type="line"/>
      <point x="248.0" y="-84.0" type="line"/>
      <point x="205.5" y="-71.0" type="line"/>
      <point x="475.5" y="700.0" type="line"/>
      <point x="664.0" y="700.0" type="line"/>
      <point x="664.0" y="626.5" type="line"/>
      <point x="488.0" y="626.5" type="line"/>
      <point x="540.0" y="648.0" type="line"/>
    </contour>
  </outline>
</glyph>
<glyph name="integral" format="2">
  <advance width="553"/>
  <unicode hex="222B"/>
  <note>
integral
</note>
  <outline>
    <contour>
      <point x="111.0" y="-127.0" type="qcurve" smooth="yes"/>
      <point x="88.0" y="-127.0"/>
      <point x="30.0" y="-103.0"/>
      <point x="0.0" y="-81.0" type="qcurve"/>
      <point x="37.0" y="-18.5" type="line"/>
      <point x="58.0" y="-36.0"/>
      <point x="93.42424242424242" y="-48.5"/>
      <point x="113.0" y="-48.5" type="qcurve" smooth="yes"/>
      <point x="145.54054054054055" y="-48.5"/>
      <point x="189.9939081820844" y="12.962341489249084"/>
      <point x="199.0" y="68.0" type="qcurve"/>
      <point x="280.0" y="547.0" type="line" smooth="yes"/>
      <point x="296.8681156276981" y="645.9855232798442"/>
      <point x="377.8409090909091" y="745.0"/>
      <point x="444.0" y="745.0" type="qcurve" smooth="yes"/>
      <point x="482.0" y="745.0"/>
      <point x="540.0" y="728.0"/>
      <point x="561.0" y="710.0" type="qcurve"/>
      <point x="538.0" y="640.0" type="line"/>
      <point x="515.9779420084615" y="654.6813719943591"/>
      <point x="465.3103448275862" y="669.0"/>
      <point x="445.0" y="669.0" type="qcurve" smooth="yes"/>
      <point x="411.36" y="669.0"/>
      <point x="368.00696757976766" y="609.541805478606"/>
      <point x="358.0" y="550.0" type="qcurve"/>
      <point x="278.0" y="71.0" type="line" smooth="yes"/>
      <point x="261.24513879228044" y="-27.925981481220923"/>
      <point x="179.10614525139664" y="-127.0"/>
    </contour>
  </outline>
</glyph>
<glyph name="greaterequal" format="2">
  <advance width="627"/>
  <unicode hex="2265"/>
  <note>
greaterequal
</note>
  <outline>
    <contour>
      <point x="557.5" y="0.0" type="line"/>
      <point x="83.5" y="0.0" type="line"/>
      <point x="83.5" y="77.0" type="line"/>
      <point x="557.5" y="77.0" type="line"/>
    </contour>
    <contour>
      <point x="91.5" y="453.5" type="line"/>
      <point x="110.0" y="523.5" type="line"/>
      <point x="540.0" y="371.0" type="line"/>
      <point x="540.0" y="307.0" type="line"/>
      <point x="110.0" y="155.0" type="line"/>
      <point x="88.0" y="221.5" type="line"/>
      <point x="492.0" y="364.5" type="line"/>
      <point x="494.5" y="313.0" type="line"/>
    </contour>
  </outline>
</glyph>
<glyph name="hah-ar.init" format="2">
  <advance width="727"/>
  <unicode hex="FEA3"/>
  <outline>
    <contour>
      <point x="236.0" y="334.0" type="qcurve" smooth="yes"/>
      <point x="185.0" y="334.0"/>
      <point x="112.0" y="266.0"/>
      <point x="87.0" y="198.0" type="qcurve"/>
      <point x="153.0" y="229.0" type="line"/>
      <point x="-13.0" y="313.0" type="line"/>
      <point x="21.0" y="243.0" type="line"/>
      <point x="56.0" y="339.0"/>
      <point x="172.0" y="438.0"/>
      <point x="250.0" y="438.0" type="qcurve" smooth="yes"/>
      <point x="293.0" y="438.0"/>
      <point x="387.0" y="404.0"/>
      <point x="477.0" y="350.0" type="qcurve" smooth="yes"/>
      <point x="562.0" y="299.0"/>
      <point x="649.0" y="267.0"/>
      <point x="687.0" y="267.0" type="qcurve"/>
      <point x="687.0" y="177.0" type="line"/>
      <point x="661.0" y="177.0"/>
      <point x="591.0" y="152.0"/>
      <point x="509.0" y="108.0" type="qcurve" smooth="yes"/>
      <point x="433.0" y="68.0"/>
      <point x="332.0" y="32.0"/>
      <point x="274.0" y="21.0" type="qcurve" smooth="yes"/>
      <point x="220.0" y="10.0"/>
      <point x="95.0" y="0.0"/>
      <point x="23.0" y="0.0" type="qcurve"/>
      <point x="0.0" y="0.0" type="line"/>
      <point x="0.0" y="102.0" type="line"/>
      <point x="29.0" y="102.0" type="line" smooth="yes"/>
      <point x="172.0" y="102.0"/>
      <point x="364.0" y="138.0"/>
      <point x="462.0" y="191.0" type="qcurve" smooth="yes"/>
      <point x="543.0" y="234.0"/>
      <point x="644.0" y="267.0"/>
      <point x="687.0" y="267.0" type="qcurve"/>
      <point x="687.0" y="177.0" type="line"/>
      <point x="644.0" y="177.0"/>
      <point x="544.0" y="209.0"/>
      <point x="445.0" y="260.0" type="qcurve" smooth="yes"/>
      <point x="356.0" y="306.0"/>
      <point x="270.0" y="334.0"/>
    </contour>
  </outline>
</glyph>
<glyph name="Iogonek.ss01" format="2">
  <advance width="327"/>
  <note>
Iogonek
</note>
  <outline>
    <contour>
      <point x="193.5" y="700.0" type="qcurve"/>
      <point x="193.5" y="0.0" type="line"/>
      <point x="114.5" y="0.0" type="line"/>
      <point x="114.5" y="700.0" type="line"/>
      <point x="134.5" y="700.0"/>
      <point x="173.5" y="700.0"/>
    </contour>
    <contour>
      <point x="131.0" y="-211.0" type="qcurve" smooth="yes"/>
      <point x="87.5" y="-211.0"/>
      <point x="25.5" y="-153.5"/>
      <point x="25.5" y="-111.0" type="qcurve" smooth="yes"/>
      <point x="25.5" y="-66.0"/>
      <point x="89.0" y="7.5"/>
      <point x="155.0" y="37.0" type="qcurve"/>
      <point x="184.5" y="28.0" type="line"/>
      <point x="193.5" y="-0.5" type="line"/>
      <point x="146.0" y="-20.0"/>
      <point x="94.0" y="-75.0"/>
      <point x="94.0" y="-102.5" type="qcurve" smooth="yes"/>
      <point x="94.0" y="-123.5"/>
      <point x="119.0" y="-151.0"/>
      <point x="141.5" y="-151.0" type="qcurve" smooth="yes"/>
      <point x="156.0" y="-151.0"/>
      <point x="179.5" y="-137.0"/>
      <point x="192.5" y="-121.0" type="qcurve"/>
      <point x="237.0" y="-153.0" type="line"/>
      <point x="222.5" y="-178.0"/>
      <point x="167.0" y="-211.0"/>
    </contour>
  </outline>
</glyph>
<glyph name="_connection.round" format="2">
  <advance width="120"/>
  <outline>
    <contour>
      <point x="-79.0" y="102.0" type="qcurve"/>
      <point x="-31.0" y="149.0" type="line"/>
      <point x="-5.0" y="124.0"/>
      <point x="65.0" y="102.0"/>
      <point x="120.0" y="102.0" type="qcurve"/>
      <point x="120.0" y="0.0" type="line"/>
      <point x="54.0" y="0.0"/>
      <point x="-49.0" y="52.0"/>
    </contour>
  </outline>
</glyph>
<glyph name="a.ss01" format="2">
  <advance width="536"/>
  <note>
a
</note>
  <outline>
    <contour>
      <point x="275.0" y="533.5" type="qcurve"/>
      <point x="365.0" y="533.5"/>
      <point x="471.0" y="445.0"/>
      <point x="471.0" y="364.0" type="qcurve"/>
      <point x="471.0" y="0.0" type="line"/>
      <point x="399.5" y="0.0" type="line"/>
      <point x="399.5" y="353.0" type="line"/>
      <point x="399.5" y="401.0"/>
      <point x="332.5" y="461.0"/>
      <point x="270.0" y="461.0" type="qcurve"/>
      <point x="221.0" y="461.0"/>
      <point x="143.0" y="421.0"/>
      <point x="110.0" y="381.5" type="qcurve"/>
      <point x="58.5" y="432.5" type="line"/>
      <point x="105.5" y="483.5"/>
      <point x="212.5" y="533.5"/>
    </contour>
    <contour>
      <point x="279.0" y="319.0" type="qcurve"/>
      <point x="434.5" y="319.0" type="line"/>
      <point x="425.5" y="253.5" type="line"/>
      <point x="266.0" y="253.5" type="line" smooth="yes"/>
      <point x="194.5" y="253.5"/>
      <point x="118.0" y="200.0"/>
      <point x="118.0" y="151.0" type="qcurve"/>
      <point x="118.0" y="109.5"/>
      <point x="178.5" y="59.0"/>
      <point x="225.0" y="59.0" type="qcurve"/>
      <point x="285.5" y="59.0"/>
      <point x="386.5" y="121.0"/>
      <point x="411.0" y="169.0" type="qcurve"/>
      <point x="433.5" y="118.5" type="line"/>
      <point x="399.5" y="61.0"/>
      <point x="284.5" y="-10.0"/>
      <point x="221.0" y="-10.0" type="qcurve"/>
      <point x="145.0" y="-10.0"/>
      <point x="43.0" y="77.0"/>
      <point x="43.0" y="149.0" type="qcurve"/>
      <point x="43.0" y="233.0"/>
      <point x="162.0" y="319.0"/>
    </contour>
  </outline>
</glyph>
<glyph name="commaaccentcomb.case" format="2">
  <outline>
    <contour>
      <point x="97.5" y="-215.0" type="qcurve"/>
      <point x="75.0" y="-182.0" type="line"/>
      <point x="97.5" y="-172.0"/>
      <point x="125.5" y="-145.5"/>
      <point x="125.5" y="-131.5" type="qcurve" smooth="yes"/>
      <point x="125.5" y="-125.5"/>
      <point x="118.5" y="-116.0"/>
      <point x="105.0" y="-111.5" type="qcurve" smooth="yes"/>
      <point x="91.0" y="-107.0"/>
      <point x="79.0" y="-89.0"/>
      <point x="79.0" y="-76.0" type="qcurve"/>
      <point x="79.0" y="-58.0"/>
      <point x="107.5" y="-35.0"/>
      <point x="129.5" y="-35.0" type="qcurve"/>
      <point x="160.0" y="-35.0"/>
      <point x="198.0" y="-72.5"/>
      <point x="198.0" y="-104.0" type="qcurve" smooth="yes"/>
      <point x="198.0" y="-139.5"/>
      <point x="145.5" y="-194.0"/>
    </contour>
  </outline>
</glyph>
<glyph name="dblgravecomb.case" format="2">
  <outline>
    <contour>
      <point x="215.5" y="614.0" type="line"/>
      <point x="186.5" y="577.0" type="line"/>
      <point x="29.5" y="669.5" type="line"/>
      <point x="76.0" y="730.0" type="line"/>
    </contour>
    <contour>
      <point x="387.5" y="614.0" type="line"/>
      <point x="358.5" y="577.0" type="line"/>
      <point x="201.5" y="669.5" type="line"/>
      <point x="248.0" y="730.0" type="line"/>
    </contour>
  </outline>
</glyph>
<glyph name="dotbelowcomb.case" format="2">
  <outline>
    <contour>
      <point x="163.5" y="-101.5" type="qcurve" smooth="yes"/>
      <point x="163.5" y="-126.0"/>
      <point x="133.0" y="-156.5"/>
      <point x="106.0" y="-156.5" type="qcurve" smooth="yes"/>
      <point x="78.5" y="-156.5"/>
      <point x="48.5" y="-127.5"/>
      <point x="48.5" y="-101.5" type="qcurve" smooth="yes"/>
      <point x="48.5" y="-77.0"/>
      <point x="79.0" y="-46.5"/>
      <point x="106.0" y="-46.5" type="qcurve" smooth="yes"/>
      <point x="133.5" y="-46.5"/>
      <point x="163.5" y="-75.5"/>
    </contour>
  </outline>
</glyph>
<glyph name="four.dnom" format="2">
  <advance width="390"/>
  <outline>
    <contour>
      <point x="279.0" y="-1.0" type="line"/>
      <point x="221.5" y="-1.0" type="line"/>
      <point x="221.5" y="102.5" type="line"/>
      <point x="221.5" y="118.5" type="line"/>
      <point x="221.5" y="308.0" type="line"/>
      <point x="247.0" y="296.5" type="line"/>
      <point x="104.5" y="123.0" type="line"/>
      <point x="100.5" y="135.0" type="line"/>
      <point x="340.0" y="135.0" type="line"/>
      <point x="340.0" y="82.0" type="line"/>
      <point x="58.5" y="82.0" type="line"/>
      <point x="46.0" y="133.0" type="line"/>
      <point x="226.0" y="356.0" type="line"/>
      <point x="279.0" y="356.0" type="line"/>
    </contour>
  </outline>
</glyph>
<glyph name="g.ss01" format="2">
  <advance width="559"/>
  <outline>
    <contour>
      <point x="68.0" y="352.5" type="qcurve"/>
      <point x="68.0" y="426.5"/>
      <point x="185.0" y="531.0"/>
      <point x="268.0" y="531.0" type="qcurve"/>
      <point x="284.5" y="531.0"/>
      <point x="321.5" y="525.0"/>
      <point x="364.0" y="511.5" type="qcurve"/>
      <point x="310.5" y="520.5" type="line"/>
      <point x="514.0" y="520.5" type="line"/>
      <point x="514.0" y="454.5" type="line"/>
      <point x="401.0" y="454.5" type="line"/>
      <point x="413.5" y="479.0" type="line"/>
      <point x="452.0" y="427.0"/>
      <point x="468.0" y="379.0"/>
      <point x="468.0" y="352.5" type="qcurve"/>
      <point x="468.0" y="277.5"/>
      <point x="351.0" y="171.0"/>
      <point x="268.0" y="171.0" type="qcurve" smooth="yes"/>
      <point x="192.0" y="171.0" type="line"/>
      <point x="169.5" y="171.0"/>
      <point x="142.0" y="146.5"/>
      <point x="142.0" y="129.0" type="qcurve"/>
      <point x="142.0" y="107.5"/>
      <point x="167.0" y="84.5"/>
      <point x="189.0" y="84.5" type="qcurve"/>
      <point x="278.5" y="84.5" type="line" smooth="yes"/>
      <point x="388.0" y="84.5"/>
      <point x="512.5" y="-1.5"/>
      <point x="512.5" y="-75.5" type="qcurve" smooth="yes"/>
      <point x="512.5" y="-144.0"/>
      <point x="388.0" y="-235.5"/>
      <point x="278.5" y="-235.5" type="qcurve" smooth="yes"/>
      <point x="164.0" y="-235.5"/>
      <point x="44.5" y="-144.0"/>
      <point x="44.5" y="-75.5" type="qcurve" smooth="yes"/>
      <point x="44.5" y="-36.0"/>
      <point x="84.0" y="25.5"/>
      <point x="144.0" y="62.0" type="qcurve"/>
      <point x="147.0" y="32.0" type="line"/>
      <point x="102.96388061816769" y="51.508785795580835"/>
      <point x="61.0" y="95.92441860465117"/>
      <point x="61.0" y="126.0" type="qcurve"/>
      <point x="61.0" y="157.53125"/>
      <point x="105.5" y="208.0"/>
      <point x="169.0" y="224.0" type="qcurve"/>
      <point x="163.5" y="194.5" type="line"/>
      <point x="102.0" y="244.0"/>
      <point x="68.0" y="313.0"/>
    </contour>
    <contour>
      <point x="268.0" y="461.0" type="qcurve"/>
      <point x="216.5" y="461.0"/>
      <point x="146.0" y="398.0"/>
      <point x="146.0" y="352.5" type="qcurve"/>
      <point x="146.0" y="304.0"/>
      <point x="216.5" y="241.0"/>
      <point x="268.0" y="241.0" type="qcurve" smooth="yes"/>
      <point x="319.5" y="241.0"/>
      <point x="390.0" y="302.5"/>
      <point x="390.0" y="352.5" type="qcurve"/>
      <point x="390.0" y="397.5"/>
      <point x="319.5" y="461.0"/>
    </contour>
    <contour>
      <point x="277.5" y="-165.5" type="qcurve" smooth="yes"/>
      <point x="349.5" y="-165.5"/>
      <point x="434.5" y="-114.5"/>
      <point x="434.5" y="-75.5" type="qcurve" smooth="yes"/>
      <point x="434.5" y="-34.0"/>
      <point x="349.5" y="14.5"/>
      <point x="277.5" y="14.5" type="qcurve" smooth="yes"/>
      <point x="208.0" y="14.5"/>
      <point x="122.5" y="-34.0"/>
      <point x="122.5" y="-75.5" type="qcurve" smooth="yes"/>
      <point x="122.5" y="-114.5"/>
      <point x="208.0" y="-165.5"/>
    </contour>
  </outline>
</glyph>
<glyph name="ring.case" format="2">
  <advance width="336"/>
  <outline>
    <contour>
      <point x="277.5" y="835.0" type="qcurve"/>
      <point x="277.5" y="792.5"/>
      <point x="212.0" y="730.5"/>
      <point x="168.0" y="730.5" type="qcurve"/>
      <point x="124.5" y="730.5"/>
      <point x="59.0" y="792.5"/>
      <point x="59.0" y="835.0" type="qcurve"/>
      <point x="59.0" y="878.5"/>
      <point x="123.5" y="941.0"/>
      <point x="168.0" y="941.0" type="qcurve"/>
      <point x="212.5" y="941.0"/>
      <point x="277.5" y="878.5"/>
    </contour>
    <contour>
      <point x="109.5" y="835.0" type="qcurve"/>
      <point x="109.5" y="812.0"/>
      <point x="143.5" y="780.0"/>
      <point x="168.0" y="780.0" type="qcurve"/>
      <point x="193.0" y="780.0"/>
      <point x="227.0" y="812.0"/>
      <point x="227.0" y="835.0" type="qcurve"/>
      <point x="227.0" y="860.0"/>
      <point x="192.5" y="891.5"/>
      <point x="168.0" y="891.5" type="qcurve"/>
      <point x="142.5" y="891.5"/>
      <point x="109.5" y="860.0"/>
    </contour>
  </outline>
</glyph>
<glyph name="two.dnom" format="2">
  <advance width="346"/>
  <outline>
    <contour>
      <point x="299.0" y="0.0" type="line"/>
      <point x="67.0" y="0.0" type="line"/>
      <point x="56.0" y="54.0" type="line"/>
      <point x="134.0" y="135.5" type="line" smooth="yes"/>
      <point x="145.0" y="147.0"/>
      <point x="176.62786646651574" y="178.93184739030372"/>
      <point x="185.5" y="189.0" type="qcurve" smooth="yes"/>
      <point x="206.5" y="211.5"/>
      <point x="226.0" y="242.9041095890411"/>
      <point x="226.0" y="258.0" type="qcurve"/>
      <point x="226.0" y="279.5"/>
      <point x="198.5" y="305.0"/>
      <point x="176.0" y="305.0" type="qcurve"/>
      <point x="153.5" y="305.0"/>
      <point x="111.5" y="277.0"/>
      <point x="88.0" y="244.5" type="qcurve"/>
      <point x="46.5" y="274.0" type="line"/>
      <point x="70.0" y="313.5"/>
      <point x="139.0" y="361.0"/>
      <point x="177.5" y="361.0" type="qcurve"/>
      <point x="229.0" y="361.0"/>
      <point x="289.5" y="303.0"/>
      <point x="289.5" y="258.0" type="qcurve"/>
      <point x="289.5" y="229.57042253521126"/>
      <point x="245.5" y="171.5"/>
      <point x="187.0" y="111.5" type="qcurve"/>
      <point x="120.0" y="43.0" type="line"/>
      <point x="124.5" y="53.5" type="line"/>
      <point x="299.0" y="53.5" type="line"/>
    </contour>
  </outline>
</glyph>
